<svg width="1200" height="1600" viewBox="0 0 1200 1600" fill="none" xmlns="http://www.w3.org/2000/svg">
  <defs>
    <linearGradient id="bg" x1="190" y1="110" x2="1010" y2="1490" gradientUnits="userSpaceOnUse">
      <stop stop-color="#374151"/>
      <stop offset="0.5" stop-color="#111827"/>
      <stop offset="1" stop-color="#030712"/>
    </linearGradient>
    <linearGradient id="shine" x1="280" y1="200" x2="980" y2="1260" gradientUnits="userSpaceOnUse">
      <stop stop-color="#F8FAFC" stop-opacity="0.9"/>
      <stop offset="0.4" stop-color="#CBD5E1" stop-opacity="0.35"/>
      <stop offset="1" stop-color="#94A3B8" stop-opacity="0.12"/>
    </linearGradient>
  </defs>
  <rect width="1200" height="1600" rx="80" fill="url(#bg)"/>
  <path d="M600 160L980 340V1260L600 1440L220 1260V340L600 160Z" fill="rgba(15,23,42,0.72)" stroke="rgba(226,232,240,0.8)" stroke-width="10"/>
  <path d="M600 240L900 400V1200L600 1360L300 1200V400L600 240Z" fill="url(#shine)" opacity="0.15"/>
  <g opacity="0.9">
    <path d="M440 420H760V650H440V420Z" fill="rgba(148,163,184,0.24)" stroke="rgba(226,232,240,0.7)" stroke-width="8"/>
    <path d="M490 468H710V600H490V468Z" fill="rgba(226,232,240,0.14)"/>
    <path d="M520 520H680" stroke="rgba(226,232,240,0.8)" stroke-width="10" stroke-linecap="round"/>
    <path d="M600 450V620" stroke="rgba(226,232,240,0.8)" stroke-width="10" stroke-linecap="round"/>
    <path d="M360 480L480 420L520 540L390 600L360 480Z" fill="rgba(248,250,252,0.22)"/>
    <path d="M840 480L720 420L680 540L810 600L840 480Z" fill="rgba(248,250,252,0.22)"/>
  </g>
  <text x="600" y="980" text-anchor="middle" font-family="Arial, Helvetica, sans-serif" font-size="118" font-weight="900" letter-spacing="12" fill="#F8FAFC">CARBON</text>
  <text x="600" y="1085" text-anchor="middle" font-family="Arial, Helvetica, sans-serif" font-size="44" font-weight="700" letter-spacing="15" fill="#CBD5E1">ULTIMATE ICON</text>
  <rect x="370" y="1180" width="460" height="120" rx="24" fill="rgba(15,23,42,0.72)" stroke="rgba(248,250,252,0.8)" stroke-width="4"/>
  <text x="600" y="1255" text-anchor="middle" font-family="Arial, Helvetica, sans-serif" font-size="70" font-weight="900" letter-spacing="8" fill="#F8FAFC">8 CARTES</text>
</svg>
